<?xml version="1.0" encoding="UTF-8"?>
<svg id="Layer_1" xmlns="http://www.w3.org/2000/svg" xmlns:xlink="http://www.w3.org/1999/xlink" version="1.1" viewBox="0 0 300 300">
  <!-- Generator: Adobe Illustrator 29.2.1, SVG Export Plug-In . SVG Version: 2.1.0 Build 116)  -->
  <defs>
    <style>
      .st0 {
        fill: #231f20;
      }

      .st1 {
        fill: none;
        stroke: #000;
        stroke-miterlimit: 10;
        stroke-width: .3px;
      }
    </style>
  </defs>
  <image width="1080" height="1920" transform="translate(80.1 -1.8) scale(.1)" xlink:href="../../../../../Volumes/MV/pickup/stories2nosfondo.png"/>
  <image width="1300" height="131" transform="translate(69.5 135.9) scale(.2)" xlink:href="../../../../../Volumes/MV/pickup/fontsolo.png"/>
  <ellipse class="st1" cx="158.3" cy="190.4" rx="86.6" ry="60.8"/>
  <ellipse class="st1" cx="161.4" cy="139.7" rx="63.8" ry="31.7"/>
  <g>
    <path class="st0" d="M28.9,135.1c.4-.8.8-1.5,1.1-2.1.3-.6.4-1,.4-1.4,0-.4-.2-.7-.5-.9-.3-.2-.9-.4-1.7-.5v-.2h13.4c1.4,0,2.7.1,3.8.4,1.1.3,2,.7,2.6,1.4.6.6.9,1.5.9,2.6,0,1.1-.4,2.4-1.3,4-1.4,2.6-3.2,4.7-5.4,6.2-2.2,1.5-4.6,2.6-7.3,3.1-.7.1-1.4.2-2.1.3-.8,0-1.5,0-2.3.1-.8,0-1.5,0-2.2,0-.7,0-1.4,0-2,0l-4.6,8.7c-.4.8-.8,1.5-1.1,2.1-.3.6-.4,1-.4,1.4,0,.4.2.7.5.9.3.2.9.4,1.7.6v.2h-11v-.2c1.1-.1,1.9-.3,2.4-.6.6-.2,1.1-.5,1.5-.9.4-.4.8-.9,1.1-1.4.3-.6.7-1.3,1.1-2.1l11.5-21.6ZM26.8,146.9c.2,0,.4.1.7.2.3,0,.6.1.9.2.3,0,.6.1.9.2.3,0,.6,0,.8,0,2.8,0,5.2-.8,7.4-2.3,2.2-1.5,4-3.7,5.5-6.5.7-1.3,1.1-2.4,1.3-3.5.2-1,.1-1.9-.1-2.6-.3-.7-.7-1.2-1.4-1.6s-1.5-.6-2.5-.6-.7,0-1.1,0c-.5,0-.9,0-1.4,0-.5,0-.9,0-1.3.1-.4,0-.8,0-1.1.2l-8.5,16.1Z"/>
    <path class="st0" d="M77.1,134.8c.3-.6.5-1.1.7-1.6.2-.5.2-.9.2-1.3,0-.4-.3-.8-.6-1.1-.3-.3-.9-.6-1.6-.7h0c0-.1,7.8-.1,7.8-.1h0c-.8.3-1.5.6-2,.9-.6.3-1.1.7-1.5,1.1-.4.4-.8.9-1.2,1.4-.3.5-.6,1-.9,1.5l-8.7,16.4c-1,2-2.3,3.7-3.6,5.1-1.4,1.4-2.8,2.6-4.3,3.5-1.5.9-3,1.6-4.6,2-1.6.4-3.1.7-4.5.7s-2.9-.2-4.2-.6c-1.3-.4-2.3-1-3-1.8-.7-.9-1.1-2-1.1-3.3,0-1.3.5-3,1.5-5l8.9-16.7c.4-.8.8-1.5,1.1-2.1.3-.6.4-1,.5-1.4,0-.4,0-.7-.4-.9-.3-.2-.8-.4-1.5-.5v-.2h10.2v.2c-.9.1-1.6.3-2.2.5-.5.2-1,.6-1.4.9-.4.4-.7.9-1,1.4-.3.6-.7,1.3-1.1,2.1l-8.4,15.9c-1,1.9-1.7,3.6-1.9,4.9-.2,1.3-.1,2.4.3,3.3.4.8,1.1,1.4,2,1.8.9.4,2,.5,3.3.5s2.4-.2,3.7-.6c1.3-.4,2.6-1,4-1.8,1.3-.8,2.6-1.9,3.9-3.2s2.3-2.8,3.3-4.7l8.6-16.5Z"/>
    <path class="st0" d="M95.6,130.5h-2.8c-.9,0-1.8.2-2.7.6-.9.4-2,1-3.1,1.7-1.1.7-2.3,1.7-3.5,2.8-1.3,1.1-2.7,2.4-4.2,3.8h-.2l6.1-9.5h25.7l-3.9,9.5h-.2c0-1.4,0-2.7-.1-3.8-.1-1.1-.3-2-.6-2.8-.3-.7-.7-1.3-1.2-1.7-.5-.4-1.2-.6-2.1-.6h-2.8l-14,26.4c-.5,1-.9,1.7-1.1,2.3-.2.6-.3,1-.3,1.3,0,.3.3.6.6.7.3.2.8.3,1.5.5h0c0,.1-10.9.1-10.9.1h0c.9-.3,1.6-.5,2.1-.7.5-.2,1-.4,1.4-.7.4-.3.8-.8,1.2-1.3.4-.6.8-1.3,1.3-2.3l14-26.4Z"/>
    <path class="st0" d="M124,160.5c-1.6.7-3.3,1.2-5.2,1.5-1.9.3-3.9.5-5.9.5s-4.7-.4-6.3-1.1c-1.6-.7-2.8-1.8-3.4-3.2-.7-1.4-.9-3.1-.6-5.1.3-2,1.1-4.2,2.5-6.8,1.5-2.8,3.2-5.3,5.1-7.4,1.9-2.1,3.9-3.9,6-5.3,2.1-1.4,4.4-2.5,6.7-3.2,2.3-.7,4.6-1.1,7-1.1s3.6.1,5.4.4c1.8.3,3.2.9,4.4,1.7l-4,8.4h-.2c.3-1.5.5-2.8.6-4,0-1.2,0-2.2-.5-3.1-.4-.9-1.1-1.5-2.1-2-1-.5-2.4-.7-4.2-.7s-3.4.4-5.2,1.2c-1.8.8-3.6,1.9-5.3,3.3-1.7,1.4-3.4,3.1-5,5-1.6,1.9-3,4-4.1,6.3-1.2,2.3-2.1,4.4-2.5,6.3-.5,1.9-.6,3.6-.3,5,.3,1.4,1,2.5,2.1,3.3,1.1.8,2.6,1.2,4.6,1.2s3-.3,4.5-.9c1.5-.6,2.9-1.3,4.2-2.2s2.6-1.9,3.7-3.1c1.2-1.1,2.1-2.2,3-3.3h.2l-5.1,8.1Z"/>
  </g>
</svg>